solid Soft Jaws for Wilton Tools 650P Vice
facet normal 2.6301214760070844e-33 1.0 -7.444720110906396e-16
  outer loop
    vertex 0.0 18.4 0.0
    vertex 3.9999999999999987 18.400000000000013 4.9999999999999964
    vertex 170.30000000000004 18.4 0.0
  endloop
endfacet
facet normal 2.6301214760070844e-33 1.0 -7.444720110906396e-16
  outer loop
    vertex 3.9999999999999987 18.400000000000013 4.9999999999999964
    vertex 0.0 18.4 0.0
    vertex 0.0 18.400000000000023 30.399999999999995
  endloop
endfacet
facet normal 2.6301214760070844e-33 1.0 -7.444720110906396e-16
  outer loop
    vertex 170.30000000000004 18.4 0.0
    vertex 3.9999999999999987 18.400000000000013 4.9999999999999964
    vertex 166.30000000000004 18.40000000000003 4.999999999999992
  endloop
endfacet
facet normal 2.6301214760070844e-33 1.0 -7.444720110906396e-16
  outer loop
    vertex 3.9999999999999987 18.400000000000013 4.9999999999999964
    vertex 0.0 18.400000000000023 30.399999999999995
    vertex 3.9999999999999987 18.400000000000023 30.399999999999995
  endloop
endfacet
facet normal 2.6301214760070844e-33 1.0 -7.444720110906396e-16
  outer loop
    vertex 166.30000000000004 18.40000000000003 4.999999999999992
    vertex 170.30000000000004 18.400000000000023 30.399999999999995
    vertex 170.30000000000004 18.4 0.0
  endloop
endfacet
facet normal 2.6301214760070844e-33 1.0 -7.444720110906396e-16
  outer loop
    vertex 170.30000000000004 18.400000000000023 30.399999999999995
    vertex 166.30000000000004 18.40000000000003 4.999999999999992
    vertex 166.3 18.40000000000004 30.399999999999988
  endloop
endfacet
facet normal 8.680107924406889e-18 7.542358114516163e-16 1.0
  outer loop
    vertex 167.80000000000004 2.5000000000000018 2.500000000000009
    vertex 2.5 15.900000000000002 2.4999999999999973
    vertex 2.5 2.5000000000000018 2.500000000000009
  endloop
endfacet
facet normal 8.680107924406889e-18 7.542358114516163e-16 1.0
  outer loop
    vertex 2.5 15.900000000000002 2.4999999999999973
    vertex 167.80000000000004 2.5000000000000018 2.500000000000009
    vertex 167.80000000000004 15.900000000000002 2.4999999999999973
  endloop
endfacet
facet normal 1.0 0.0 0.0
  outer loop
    vertex 170.30000000000004 18.4 0.0
    vertex 170.30000000000004 2.193800696659309e-14 30.400000000000006
    vertex 170.30000000000004 0.0 1.1550582712516188e-14
  endloop
endfacet
facet normal 1.0 0.0 0.0
  outer loop
    vertex 170.30000000000004 2.193800696659309e-14 30.400000000000006
    vertex 170.30000000000004 18.4 0.0
    vertex 170.30000000000004 18.400000000000023 30.399999999999995
  endloop
endfacet
facet normal 5.658408084562135e-49 -6.629379656626373e-16 -1.0
  outer loop
    vertex 170.30000000000004 18.4 0.0
    vertex 0.0 0.0 1.1550582712516188e-14
    vertex 0.0 18.4 0.0
  endloop
endfacet
facet normal 5.658408084562135e-49 -6.629379656626373e-16 -1.0
  outer loop
    vertex 0.0 0.0 1.1550582712516188e-14
    vertex 170.30000000000004 18.4 0.0
    vertex 170.30000000000004 0.0 1.1550582712516188e-14
  endloop
endfacet
facet normal 0.7071067811865475 -3.4951529018705324e-16 -0.7071067811865476
  outer loop
    vertex 4.0 15.900000000000022 30.399999999999995
    vertex 2.4999999999999996 3.500000000000017 28.9
    vertex 2.4999999999999996 15.900000000000022 28.899999999999995
  endloop
endfacet
facet normal 0.7071067811865475 -3.4951529018705324e-16 -0.7071067811865476
  outer loop
    vertex 2.4999999999999996 3.500000000000017 28.9
    vertex 4.0 15.900000000000022 30.399999999999995
    vertex 4.0 5.000000000000021 30.4
  endloop
endfacet
facet normal -1.0 0.0 0.0
  outer loop
    vertex 0.0 2.193800696659309e-14 30.400000000000006
    vertex 0.0 18.4 0.0
    vertex 0.0 0.0 1.1550582712516188e-14
  endloop
endfacet
facet normal -1.0 0.0 0.0
  outer loop
    vertex 0.0 18.4 0.0
    vertex 0.0 2.193800696659309e-14 30.400000000000006
    vertex 0.0 18.400000000000023 30.399999999999995
  endloop
endfacet
facet normal -1.525850918075837e-34 1.0 -7.247535904753022e-16
  outer loop
    vertex 2.5 2.50000000000002 27.900000000000002
    vertex 167.80000000000004 2.5000000000000018 2.500000000000009
    vertex 2.5 2.5000000000000018 2.500000000000009
  endloop
endfacet
facet normal -1.525850918075837e-34 1.0 -7.247535904753022e-16
  outer loop
    vertex 167.80000000000004 2.5000000000000018 2.500000000000009
    vertex 2.5 2.50000000000002 27.900000000000002
    vertex 167.80000000000004 2.50000000000002 27.900000000000002
  endloop
endfacet
facet normal 0.0 -1.0 7.216449660063518e-16
  outer loop
    vertex 170.30000000000004 2.193800696659309e-14 30.400000000000006
    vertex 0.0 0.0 1.1550582712516188e-14
    vertex 170.30000000000004 0.0 1.1550582712516188e-14
  endloop
endfacet
facet normal 0.0 -1.0 7.216449660063518e-16
  outer loop
    vertex 0.0 0.0 1.1550582712516188e-14
    vertex 170.30000000000004 2.193800696659309e-14 30.400000000000006
    vertex 0.0 2.193800696659309e-14 30.400000000000006
  endloop
endfacet
facet normal -1.0 6.56923360973455e-15 -3.006785512691043e-16
  outer loop
    vertex 166.3 18.40000000000004 30.399999999999988
    vertex 166.3 15.90000000000003 4.999999999999997
    vertex 166.3 15.900000000000022 30.399999999999995
  endloop
endfacet
facet normal -1.0 6.56923360973455e-15 -3.006785512691043e-16
  outer loop
    vertex 166.3 15.90000000000003 4.999999999999997
    vertex 166.3 18.40000000000004 30.399999999999988
    vertex 166.30000000000004 18.40000000000003 4.999999999999992
  endloop
endfacet
facet normal 1.0 2.367547223496536e-16 -3.25330959370471e-17
  outer loop
    vertex 3.9999999999999987 18.400000000000013 4.9999999999999964
    vertex 4.0 15.900000000000022 30.399999999999995
    vertex 3.9999999999999987 15.900000000000015 5.000000000000002
  endloop
endfacet
facet normal 1.0 2.367547223496536e-16 -3.25330959370471e-17
  outer loop
    vertex 4.0 15.900000000000022 30.399999999999995
    vertex 3.9999999999999987 18.400000000000013 4.9999999999999964
    vertex 3.9999999999999987 18.400000000000023 30.399999999999995
  endloop
endfacet
facet normal 2.668803769065638e-17 2.310116542503237e-15 1.0
  outer loop
    vertex 166.3 15.90000000000003 4.999999999999997
    vertex 3.9999999999999987 18.400000000000013 4.9999999999999964
    vertex 3.9999999999999987 15.900000000000015 5.000000000000002
  endloop
endfacet
facet normal 2.668803769065638e-17 2.310116542503237e-15 1.0
  outer loop
    vertex 3.9999999999999987 18.400000000000013 4.9999999999999964
    vertex 166.3 15.90000000000003 4.999999999999997
    vertex 166.30000000000004 18.40000000000003 4.999999999999992
  endloop
endfacet
facet normal 3.9028413554050456e-17 -1.0 3.3596315309185336e-16
  outer loop
    vertex 167.80000000000004 15.900000000000002 2.4999999999999973
    vertex 166.3 15.90000000000003 4.999999999999997
    vertex 2.5 15.900000000000002 2.4999999999999973
  endloop
endfacet
facet normal 3.9028413554050456e-17 -1.0 3.3596315309185336e-16
  outer loop
    vertex 166.3 15.90000000000003 4.999999999999997
    vertex 167.80000000000004 15.900000000000002 2.4999999999999973
    vertex 167.80000000000004 15.900000000000022 28.9
  endloop
endfacet
facet normal 3.9028413554050456e-17 -1.0 3.3596315309185336e-16
  outer loop
    vertex 166.3 15.90000000000003 4.999999999999997
    vertex 167.80000000000004 15.900000000000022 28.9
    vertex 166.3 15.900000000000022 30.399999999999995
  endloop
endfacet
facet normal 3.9028413554050456e-17 -1.0 3.3596315309185336e-16
  outer loop
    vertex 2.5 15.900000000000002 2.4999999999999973
    vertex 3.9999999999999987 15.900000000000015 5.000000000000002
    vertex 2.4999999999999996 15.900000000000022 28.899999999999995
  endloop
endfacet
facet normal 3.9028413554050456e-17 -1.0 3.3596315309185336e-16
  outer loop
    vertex 3.9999999999999987 15.900000000000015 5.000000000000002
    vertex 2.5 15.900000000000002 2.4999999999999973
    vertex 166.3 15.90000000000003 4.999999999999997
  endloop
endfacet
facet normal 3.9028413554050456e-17 -1.0 3.3596315309185336e-16
  outer loop
    vertex 2.4999999999999996 15.900000000000022 28.899999999999995
    vertex 3.9999999999999987 15.900000000000015 5.000000000000002
    vertex 4.0 15.900000000000022 30.399999999999995
  endloop
endfacet
facet normal 1.0 3.018589661075625e-17 3.508465050523525e-18
  outer loop
    vertex 2.5 15.900000000000002 2.4999999999999973
    vertex 2.5 2.50000000000002 27.900000000000002
    vertex 2.5 2.5000000000000018 2.500000000000009
  endloop
endfacet
facet normal 1.0 3.018589661075625e-17 3.508465050523525e-18
  outer loop
    vertex 2.5 2.50000000000002 27.900000000000002
    vertex 2.5 15.900000000000002 2.4999999999999973
    vertex 2.4999999999999996 3.500000000000017 28.9
  endloop
endfacet
facet normal 1.0 3.018589661075625e-17 3.508465050523525e-18
  outer loop
    vertex 2.4999999999999996 3.500000000000017 28.9
    vertex 2.5 15.900000000000002 2.4999999999999973
    vertex 2.4999999999999996 15.900000000000022 28.899999999999995
  endloop
endfacet
facet normal -1.0 -5.128138659339207e-16 1.550640777693518e-16
  outer loop
    vertex 167.80000000000004 2.50000000000002 27.900000000000002
    vertex 167.80000000000004 15.900000000000002 2.4999999999999973
    vertex 167.80000000000004 2.5000000000000018 2.500000000000009
  endloop
endfacet
facet normal -1.0 -5.128138659339207e-16 1.550640777693518e-16
  outer loop
    vertex 167.80000000000004 15.900000000000002 2.4999999999999973
    vertex 167.80000000000004 2.50000000000002 27.900000000000002
    vertex 167.80000000000004 3.5000000000000155 28.9
  endloop
endfacet
facet normal -1.0 -5.128138659339207e-16 1.550640777693518e-16
  outer loop
    vertex 167.80000000000004 15.900000000000002 2.4999999999999973
    vertex 167.80000000000004 3.5000000000000155 28.9
    vertex 167.80000000000004 15.900000000000022 28.9
  endloop
endfacet
facet normal 1.885262680543728e-18 0.7071067811865469 -0.7071067811865481
  outer loop
    vertex 4.0 5.000000000000021 30.4
    vertex 2.5 2.50000000000002 27.900000000000002
    vertex 2.4999999999999996 3.500000000000017 28.9
  endloop
endfacet
facet normal 1.885262680543728e-18 0.7071067811865469 -0.7071067811865481
  outer loop
    vertex 2.5 2.50000000000002 27.900000000000002
    vertex 4.0 5.000000000000021 30.4
    vertex 167.80000000000004 2.50000000000002 27.900000000000002
  endloop
endfacet
facet normal 1.885262680543728e-18 0.7071067811865469 -0.7071067811865481
  outer loop
    vertex 167.80000000000004 2.50000000000002 27.900000000000002
    vertex 4.0 5.000000000000021 30.4
    vertex 166.3 5.000000000000021 30.4
  endloop
endfacet
facet normal 1.885262680543728e-18 0.7071067811865469 -0.7071067811865481
  outer loop
    vertex 167.80000000000004 2.50000000000002 27.900000000000002
    vertex 166.3 5.000000000000021 30.4
    vertex 167.80000000000004 3.5000000000000155 28.9
  endloop
endfacet
facet normal 6.840422724549365e-18 6.602970170903098e-16 1.0
  outer loop
    vertex 0.0 2.193800696659309e-14 30.400000000000006
    vertex 4.0 5.000000000000021 30.4
    vertex 0.0 18.400000000000023 30.399999999999995
  endloop
endfacet
facet normal 6.840422724549365e-18 6.602970170903098e-16 1.0
  outer loop
    vertex 4.0 5.000000000000021 30.4
    vertex 0.0 2.193800696659309e-14 30.400000000000006
    vertex 170.30000000000004 2.193800696659309e-14 30.400000000000006
  endloop
endfacet
facet normal 6.840422724549365e-18 6.602970170903098e-16 1.0
  outer loop
    vertex 0.0 18.400000000000023 30.399999999999995
    vertex 4.0 5.000000000000021 30.4
    vertex 3.9999999999999987 18.400000000000023 30.399999999999995
  endloop
endfacet
facet normal 6.840422724549365e-18 6.602970170903098e-16 1.0
  outer loop
    vertex 4.0 5.000000000000021 30.4
    vertex 170.30000000000004 2.193800696659309e-14 30.400000000000006
    vertex 166.3 5.000000000000021 30.4
  endloop
endfacet
facet normal 6.840422724549365e-18 6.602970170903098e-16 1.0
  outer loop
    vertex 166.3 5.000000000000021 30.4
    vertex 170.30000000000004 2.193800696659309e-14 30.400000000000006
    vertex 166.3 15.900000000000022 30.399999999999995
  endloop
endfacet
facet normal 6.840422724549365e-18 6.602970170903098e-16 1.0
  outer loop
    vertex 166.3 15.900000000000022 30.399999999999995
    vertex 170.30000000000004 18.400000000000023 30.399999999999995
    vertex 166.3 18.40000000000004 30.399999999999988
  endloop
endfacet
facet normal 6.840422724549365e-18 6.602970170903098e-16 1.0
  outer loop
    vertex 170.30000000000004 18.400000000000023 30.399999999999995
    vertex 166.3 15.900000000000022 30.399999999999995
    vertex 170.30000000000004 2.193800696659309e-14 30.400000000000006
  endloop
endfacet
facet normal 6.840422724549365e-18 6.602970170903098e-16 1.0
  outer loop
    vertex 4.0 15.900000000000022 30.399999999999995
    vertex 3.9999999999999987 18.400000000000023 30.399999999999995
    vertex 4.0 5.000000000000021 30.4
  endloop
endfacet
facet normal -0.7071067811865456 -1.617960806236736e-16 -0.7071067811865495
  outer loop
    vertex 167.80000000000004 15.900000000000022 28.9
    vertex 166.3 5.000000000000021 30.4
    vertex 166.3 15.900000000000022 30.399999999999995
  endloop
endfacet
facet normal -0.7071067811865456 -1.617960806236736e-16 -0.7071067811865495
  outer loop
    vertex 166.3 5.000000000000021 30.4
    vertex 167.80000000000004 15.900000000000022 28.9
    vertex 167.80000000000004 3.5000000000000155 28.9
  endloop
endfacet
endsolid Soft Jaws for Wilton Tools 650P Vice
